<svg width="45" height="51" viewBox="0 0 45 51" fill="none" xmlns="http://www.w3.org/2000/svg">
<rect x="0.5" width="44" height="44" rx="22" fill="#09AF2E"/>
<path d="M18.9161 27V25.4489L22.5404 22.093C22.8486 21.7947 23.1072 21.5263 23.316 21.2876C23.5281 21.049 23.6888 20.8153 23.7982 20.5866C23.9076 20.3546 23.9623 20.1044 23.9623 19.8359C23.9623 19.5376 23.8943 19.2808 23.7584 19.0653C23.6225 18.8466 23.4369 18.6792 23.2016 18.5632C22.9663 18.4439 22.6995 18.3842 22.4012 18.3842C22.0896 18.3842 21.8179 18.4472 21.5858 18.5732C21.3538 18.6991 21.1749 18.8797 21.0489 19.1151C20.923 19.3504 20.86 19.6304 20.86 19.9553H18.8167C18.8167 19.2891 18.9675 18.7107 19.2691 18.2202C19.5707 17.7296 19.9933 17.3501 20.5368 17.0817C21.0804 16.8132 21.7068 16.679 22.4161 16.679C23.1453 16.679 23.78 16.8082 24.3202 17.0668C24.8638 17.322 25.2864 17.6766 25.588 18.1307C25.8896 18.5848 26.0404 19.1051 26.0404 19.6918C26.0404 20.0762 25.9642 20.4557 25.8117 20.8303C25.6626 21.2048 25.3957 21.6207 25.0113 22.0781C24.6268 22.5322 24.0849 23.0774 23.3856 23.7138L21.8991 25.1705V25.2401H26.1746V27H18.9161Z" fill="white"/>
<path d="M22.5 51L16.0048 40.5L28.9952 40.5L22.5 51Z" fill="#09AF2E"/>
</svg>
