<svg width="45" height="51" viewBox="0 0 45 51" fill="none" xmlns="http://www.w3.org/2000/svg">
<rect x="0.5" width="44" height="44" rx="22" fill="#09AF2E"/>
<path d="M22.4745 27.1392C21.7321 27.1392 21.0709 27.0116 20.4909 26.7564C19.9142 26.4979 19.4584 26.1432 19.1237 25.6925C18.7922 25.2384 18.6215 24.7147 18.6116 24.1214H20.7792C20.7925 24.37 20.8737 24.5888 21.0228 24.7777C21.1753 24.9633 21.3775 25.1075 21.6294 25.2102C21.8812 25.313 22.1646 25.3643 22.4795 25.3643C22.8076 25.3643 23.0976 25.3063 23.3495 25.1903C23.6014 25.0743 23.7986 24.9136 23.9411 24.7081C24.0837 24.5026 24.1549 24.2656 24.1549 23.9972C24.1549 23.7254 24.0787 23.4851 23.9262 23.2763C23.7771 23.0642 23.5616 22.8984 23.2799 22.7791C23.0015 22.6598 22.6701 22.6001 22.2856 22.6001H21.336V21.0192H22.2856C22.6104 21.0192 22.8971 20.9628 23.1457 20.8501C23.3976 20.7375 23.5931 20.5817 23.7323 20.3828C23.8715 20.1806 23.9411 19.9453 23.9411 19.6768C23.9411 19.4216 23.8798 19.1979 23.7572 19.0057C23.6379 18.8101 23.4688 18.6577 23.2501 18.5483C23.0347 18.4389 22.7828 18.3842 22.4944 18.3842C22.2027 18.3842 21.9359 18.4373 21.694 18.5433C21.452 18.6461 21.2581 18.7936 21.1123 18.9858C20.9665 19.178 20.8886 19.4034 20.8786 19.6619H18.8154C18.8254 19.0753 18.9927 18.5582 19.3176 18.1108C19.6424 17.6634 20.0799 17.3137 20.6301 17.0618C21.1836 16.8066 21.8083 16.679 22.5044 16.679C23.207 16.679 23.8218 16.8066 24.3488 17.0618C24.8758 17.317 25.2851 17.6617 25.5768 18.0959C25.8718 18.5268 26.0176 19.0107 26.0143 19.5476C26.0176 20.1177 25.8403 20.5933 25.4823 20.9744C25.1277 21.3556 24.6653 21.5975 24.0953 21.7003V21.7798C24.8443 21.8759 25.4144 22.1361 25.8055 22.5604C26.1999 22.9813 26.3954 23.5083 26.3921 24.1413C26.3954 24.7214 26.2281 25.2367 25.89 25.6875C25.5553 26.1383 25.0929 26.4929 24.5029 26.7514C23.913 27.0099 23.2368 27.1392 22.4745 27.1392Z" fill="white"/>
<path d="M22.5 51L16.0048 40.5L28.9952 40.5L22.5 51Z" fill="#09AF2E"/>
</svg>
