<svg width="702" height="418" viewBox="0 0 702 418" fill="none" xmlns="http://www.w3.org/2000/svg">
<g clip-path="url(#clip0_294_402)">
<mask id="mask0_294_402" style="mask-type:luminance" maskUnits="userSpaceOnUse" x="-116" y="0" width="910" height="676">
<path d="M793.437 0H-116V675.99H793.437V0Z" fill="white"/>
</mask>
<g mask="url(#mask0_294_402)">
<path opacity="0.14" d="M-40.9317 759.791C-54.3323 725.263 -63.6121 688.491 -62.0121 651.476C-60.4121 614.461 -46.95 577.05 -20.3146 551.346C1.34995 530.463 29.8772 518.661 55.9889 503.776C89.005 484.917 118.691 460.744 143.855 432.227C165.172 408.074 183.525 379.833 188.483 347.974C193.97 312.28 182.321 276.137 182.846 240.053C183.205 217.72 188.287 195.719 197.758 175.498C207.229 155.278 220.874 137.297 237.793 122.74C254.712 108.183 274.523 97.3809 295.919 91.0442C317.316 84.7075 339.813 82.9804 361.93 85.9766C393.92 90.3294 424.181 104.397 456.379 106.798C526.6 112.038 587.303 62.4097 652.249 35.2358C670.573 27.5693 694.024 22.4653 708.414 36.1745C708.003 36.2793 709.533 40.5623 709.03 40.6904L840.739 557.18C840.328 557.285 839.587 561.149 839.176 561.254L-32.8588 783.63C-37.5474 776.209 -37.7539 767.962 -40.9317 759.791Z" fill="#09AF2E"/>
<path opacity="0.14" d="M262.973 989.07C249.567 954.519 240.264 917.753 241.887 880.732C243.51 843.712 256.949 806.306 283.585 780.602C305.232 759.748 333.759 747.946 359.888 733.032C392.901 714.2 422.585 690.052 447.749 661.558C469.066 637.405 487.436 609.135 492.371 577.282C497.864 541.611 486.215 505.467 486.734 469.361C487.086 447.008 492.168 424.987 501.645 404.748C511.122 384.509 524.778 366.513 541.714 351.946C558.65 337.379 578.48 326.572 599.897 320.238C621.315 313.903 643.832 312.186 665.966 315.198C697.956 319.551 728.223 333.641 760.392 336.025C830.613 341.265 891.322 291.66 956.263 264.463C974.609 256.791 998.066 251.709 1012.43 265.424C1012.02 265.529 1013.55 269.789 1013.04 269.917L1144.75 786.407C1144.34 786.512 1143.6 790.376 1143.19 790.481L271.063 1012.88C266.329 1005.47 266.089 997.379 262.973 989.07Z" fill="#09AF2E"/>
<path opacity="0.14" d="M73.3897 683.858C71.4466 646.87 74.1513 609.038 87.2727 574.391C100.394 539.744 124.819 508.421 158.2 492.388C185.298 479.369 216.084 477.092 245.572 471.154C282.827 463.613 318.586 449.988 351.417 430.825C379.219 414.559 405.506 393.495 420.165 364.784C436.602 332.651 436.74 294.67 448.584 260.544C455.911 239.44 467.624 220.132 482.951 203.893C498.278 187.654 516.872 174.853 537.506 166.332C558.14 157.811 580.346 153.765 602.66 154.461C624.975 155.156 646.891 160.577 666.965 170.366C695.986 184.53 720.318 207.387 750.074 219.757C815.139 246.733 888.367 218.567 958.513 213.214C978.324 211.667 1002.22 214.237 1011.6 231.732C1011.17 231.694 1011.19 236.219 1010.77 236.203L974.199 767.882C973.782 767.867 971.862 771.302 971.462 771.258L73.5477 708.887C71.4026 700.38 73.7983 692.516 73.3897 683.858Z" fill="#09AF2E"/>
<path opacity="0.14" d="M56.0875 317.052C50.1952 330.552 49.3595 345.825 51.1753 360.423C53.2964 377.628 60.4979 396.134 76.292 403.406C85.9522 407.855 97.3096 407.251 107.585 404.38C127.858 398.745 145.128 380.982 151.551 361.239C157.369 343.424 154.445 322.717 142.807 308.046C120.815 280.346 71.6238 282.826 56.4017 316.309L56.0875 317.052Z" fill="#09AF2E"/>
<path opacity="0.14" d="M58.0641 703.854C30.88 639.398 10.726 539.293 3.22719 469.744C-4.27166 400.195 10.9464 324.95 59.4617 274.535C78.56 254.745 102.194 239.298 118.842 217.431C152.768 172.83 151.471 110.438 177.64 60.8779C208.371 2.60922 279.319 -31.3524 343.959 -18.7259C378.556 -11.9709 409.752 6.33631 438.762 26.3692C452.278 35.7009 465.935 45.6782 481.898 49.4449C505.722 55.1498 530.697 46.1037 551.78 33.6201C572.864 21.1366 591.866 5.07024 614.034 -5.35327C668.729 -31.0571 739.731 -15.7935 779.093 30.15C778.07 31.1899 781.946 33.7065 782.905 34.8004L913.944 548.662C911.501 549.285 909.396 551.136 906.953 551.759L102.04 757.018C92.0819 737.993 80.285 745.796 75.1585 724.93C73.2159 716.931 61.2619 711.436 58.0641 703.854Z" fill="#09AF2E"/>
</g>
</g>
<defs>
<clipPath id="clip0_294_402">
<path d="M0 0H672C688.569 0 702 13.4315 702 30V388C702 404.569 688.569 418 672 418H0V0Z" fill="white"/>
</clipPath>
</defs>
</svg>
