<svg width="32" height="32" viewBox="0 0 32 32" fill="none" xmlns="http://www.w3.org/2000/svg">
<path fill-rule="evenodd" clip-rule="evenodd" d="M18.7964 6.60137C17.941 6.21437 16.9933 6 16 6C12.5396 6 9.63251 8.60196 9.25036 12.0413L8.94425 14.7963C8.89897 15.2038 8.87633 15.4075 8.84373 15.6078C8.70274 16.4739 8.42021 17.3109 8.00746 18.0853C7.91202 18.2644 7.80654 18.4402 7.5956 18.7917L7.59559 18.7917L6.87627 19.9906C6.07051 21.3335 5.66763 22.005 5.95486 22.5123C6.24209 23.0196 7.02514 23.0196 8.59126 23.0196H23.4088C24.975 23.0196 25.758 23.0196 26.0452 22.5123C26.3325 22.005 25.9296 21.3335 25.1238 19.9906L24.4045 18.7917L24.4044 18.7916C24.1935 18.4401 24.0881 18.2643 23.9926 18.0853C23.5799 17.3109 23.2974 16.4739 23.1564 15.6078C23.1322 15.4592 23.1135 15.3087 23.0869 15.0746C20.1833 14.9657 17.8628 12.5774 17.8628 9.64707C17.8628 8.51832 18.2071 7.46998 18.7964 6.60137ZM21.196 8.41778C22.0308 9.40856 22.5896 10.6456 22.7469 12.0166C21.6676 11.7684 20.8628 10.8017 20.8628 9.64707C20.8628 9.19858 20.9842 8.77846 21.196 8.41778Z" fill="#4C546E"/>
<path d="M12 23C12 23.5253 12.1035 24.0454 12.3045 24.5307C12.5055 25.016 12.8001 25.457 13.1716 25.8284C13.543 26.1999 13.984 26.4945 14.4693 26.6955C14.9546 26.8965 15.4747 27 16 27C16.5253 27 17.0454 26.8965 17.5307 26.6955C18.016 26.4945 18.457 26.1999 18.8284 25.8284C19.1999 25.457 19.4945 25.016 19.6955 24.5307C19.8965 24.0454 20 23.5253 20 23L16 23H12Z" fill="#4C546E"/>
<circle cx="23.5" cy="9.5" r="3" fill="#DA232E" stroke="#DA232E"/>
</svg>
