<svg width="631" height="355" viewBox="0 0 631 355" fill="none" xmlns="http://www.w3.org/2000/svg">
<g clip-path="url(#clip0_294_451)">
<path opacity="0.14" d="M587.199 365.752C590.088 341.945 590.027 317.39 583.086 294.423C576.145 271.456 561.682 250.138 540.812 238.273C523.842 228.637 504.012 225.796 485.207 220.635C461.423 214.085 438.881 203.669 418.486 189.803C401.21 178.06 385.141 163.278 376.916 144.083C367.743 122.567 369.271 98.0267 363.156 75.4719C359.349 61.5176 352.626 48.5271 343.428 37.356C334.231 26.185 322.769 17.0869 309.796 10.6609C296.823 4.23501 282.635 0.627055 268.165 0.0747011C253.695 -0.477653 239.273 2.03813 225.847 7.45636C206.43 15.3055 189.658 28.9727 169.798 35.6307C126.485 50.1531 80.3582 28.7284 35.1643 22.0704C22.4134 20.1921 6.84939 20.7418 -1.23952e-05 31.6451C0.275187 31.6451 -1.0527e-05 34.5771 0.336344 34.5771V379.694C0.611543 379.694 1.69706 382 1.97226 382H585.945C587.703 376.594 586.511 371.387 587.199 365.752Z" fill="#09AF2E"/>
<path opacity="0.14" d="M51.0892 580.712C36.8498 530.574 31.0522 454.712 31.8335 402.597C32.6147 350.483 50.7135 296.224 91.1771 263.355C107.101 250.457 125.984 241.184 140.284 226.528C169.43 196.631 174.146 150.373 198.006 116.104C226.034 75.8096 281.589 57.1487 328.242 72.3663C353.212 80.5089 374.617 96.885 394.248 114.339C403.394 122.469 412.586 131.09 424.048 135.327C441.147 141.713 460.439 137.295 477.166 129.982C493.893 122.668 509.407 112.515 526.748 106.824C569.534 92.791 620.652 110.537 645.581 148.094C644.73 148.77 647.367 150.983 647.977 151.88L698.136 543.804C696.273 544.043 694.548 545.22 692.685 545.459L78.7732 624.028C73.14 609.053 63.7063 613.75 61.8134 597.853C61.1045 591.761 52.7643 586.61 51.0892 580.712Z" fill="#09AF2E"/>
</g>
<defs>
<clipPath id="clip0_294_451">
<path d="M0 0H631V325C631 341.569 617.569 355 601 355H30C13.4315 355 0 341.569 0 325V0Z" fill="white"/>
</clipPath>
</defs>
</svg>
