<svg width="631" height="400" viewBox="0 0 631 400" fill="none" xmlns="http://www.w3.org/2000/svg">
<rect width="631" height="400" rx="30" fill="#DEF4E3"/>
<g clip-path="url(#clip0_0_1)">
<path opacity="0.14" d="M587.199 410.752C590.088 386.945 590.027 362.39 583.086 339.423C576.145 316.456 561.682 295.138 540.812 283.273C523.842 273.637 504.012 270.796 485.207 265.635C461.423 259.085 438.881 248.669 418.486 234.803C401.21 223.06 385.141 208.278 376.916 189.083C367.743 167.567 369.271 143.027 363.156 120.472C359.349 106.518 352.626 93.5271 343.428 82.356C334.231 71.185 322.769 62.0869 309.796 55.6609C296.823 49.235 282.635 45.6271 268.165 45.0747C253.695 44.5223 239.273 47.0381 225.847 52.4564C206.43 60.3055 189.658 73.9727 169.798 80.6307C126.485 95.1531 80.3582 73.7284 35.1643 67.0704C22.4134 65.1921 6.84939 65.7418 -1.23952e-05 76.6451C0.275187 76.6451 -1.0527e-05 79.5771 0.336344 79.5771V424.694C0.611543 424.694 1.69706 427 1.97226 427H585.945C587.703 421.594 586.511 416.387 587.199 410.752Z" fill="#09AF2E"/>
<path opacity="0.14" d="M51.0892 625.712C36.8498 575.574 31.0522 499.712 31.8335 447.597C32.6147 395.483 50.7135 341.224 91.1771 308.355C107.101 295.457 125.984 286.184 140.284 271.528C169.43 241.631 174.146 195.373 198.006 161.104C226.034 120.81 281.589 102.149 328.242 117.366C353.212 125.509 374.617 141.885 394.248 159.339C403.394 167.469 412.586 176.09 424.048 180.327C441.147 186.713 460.439 182.295 477.166 174.982C493.893 167.668 509.407 157.515 526.748 151.824C569.534 137.791 620.652 155.537 645.581 193.094C644.73 193.77 647.367 195.983 647.977 196.88L698.136 588.804C696.273 589.043 694.548 590.22 692.685 590.459L78.7732 669.028C73.14 654.053 63.7063 658.75 61.8134 642.853C61.1045 636.761 52.7643 631.61 51.0892 625.712Z" fill="#09AF2E"/>
</g>
<defs>
<clipPath id="clip0_0_1">
<path d="M0 45H631V370C631 386.569 617.569 400 601 400H30C13.4315 400 0 386.569 0 370V45Z" fill="white"/>
</clipPath>
</defs>
</svg>
