<svg width="32" height="32" viewBox="0 0 32 32" fill="none" xmlns="http://www.w3.org/2000/svg">
<path d="M3 8.25C3 7.55964 3.54498 7 4.21726 7H6.08515C6.93628 7 7.69692 7.54556 7.98992 8.36616L8.69229 10.3333H24.9695C26.3774 10.3333 27.3572 11.7699 26.8761 13.1286L24.803 18.983C24.1616 20.7943 22.4853 22 20.6084 22H13.3822C11.5097 22 9.83632 20.7998 9.19173 18.9944L5.80176 9.5H4.21726C3.54498 9.5 3 8.94036 3 8.25Z" fill="#4C546E"/>
<path d="M10.3037 25.3333C10.3037 24.4129 11.0304 23.6667 11.9268 23.6667C12.8231 23.6667 13.5498 24.4129 13.5498 25.3333C13.5498 26.2538 12.8231 27 11.9268 27C11.0304 27 10.3037 26.2538 10.3037 25.3333Z" fill="#4C546E"/>
<path d="M20.0418 25.3333C20.0418 24.4129 20.7684 23.6667 21.6648 23.6667C22.5612 23.6667 23.2878 24.4129 23.2878 25.3333C23.2878 26.2538 22.5612 27 21.6648 27C20.7684 27 20.0418 26.2538 20.0418 25.3333Z" fill="#4C546E"/>
</svg>
