<svg width="52" height="52" viewBox="0 0 52 52" fill="none" xmlns="http://www.w3.org/2000/svg">
<rect x="0.5" y="0.5" width="51" height="51" rx="16.5" fill="#09AF2E"/>
<path d="M28.27 38.0528C28.9842 38.6929 30.055 38.7249 30.8312 38.1617C32.1984 37.1699 33.6396 36.1578 34.8987 34.8987C36.1578 33.6396 37.1699 32.1984 38.1617 30.8312C38.7249 30.055 38.6929 28.9842 38.0528 28.27C34.3082 24.0923 30.4579 20.2735 26.2302 16.542C25.9804 16.3215 25.6818 16.1684 25.3553 16.1016C23.5688 15.7362 17.4691 14.6165 16.0428 16.0428C14.6165 17.4691 15.7362 23.5688 16.1016 25.3553C16.1684 25.6818 16.3215 25.9804 16.542 26.2302C20.2735 30.4579 24.0923 34.3082 28.27 38.0528Z" stroke="white" stroke-width="1.5"/>
<circle cx="22.4534" cy="22.4531" r="2.20832" transform="rotate(-45 22.4534 22.4531)" stroke="white" stroke-width="1.5"/>
<rect x="0.5" y="0.5" width="51" height="51" rx="16.5" stroke="white"/>
</svg>
