<svg width="62" height="49" viewBox="0 0 62 49" fill="none" xmlns="http://www.w3.org/2000/svg">
<rect x="0.5" y="1" width="61" height="47" rx="16.5" fill="#09AF2E"/>
<path d="M40.4331 15.8739H21.5675C20.8285 15.8746 20.1199 16.1685 19.5974 16.691C19.0748 17.2136 18.781 17.9221 18.7803 18.6611V28.9311C18.781 29.6701 19.0748 30.3787 19.5974 30.9012C20.1199 31.4238 20.8285 31.7177 21.5675 31.7183H27.4019L30.7039 35.8237C30.7406 35.8699 30.7872 35.9072 30.8404 35.9329C30.8935 35.9585 30.9517 35.9719 31.0107 35.972C31.0697 35.9721 31.128 35.9588 31.1811 35.9331C31.2343 35.9075 31.2809 35.8701 31.3175 35.8237L34.5987 31.7183H40.4331C41.1721 31.7177 41.8806 31.4238 42.4032 30.9012C42.9257 30.3787 43.2196 29.6701 43.2203 28.9311V18.6611C43.2196 17.9221 42.9257 17.2136 42.4032 16.691C41.8806 16.1685 41.1721 15.8746 40.4331 15.8739ZM42.4403 28.9311C42.4389 29.4617 42.2275 29.9701 41.8524 30.3453C41.4772 30.7204 40.9688 30.9318 40.4383 30.9331H34.4089C34.3502 30.9333 34.2922 30.9464 34.2392 30.9716C34.1861 30.9967 34.1393 31.0333 34.1021 31.0787L31.0003 34.9501L27.8803 31.0787C27.844 31.033 27.7977 30.9961 27.745 30.9708C27.6923 30.9456 27.6345 30.9327 27.5761 30.9331H21.5675C21.036 30.9331 20.5263 30.7224 20.15 30.3471C19.7737 29.9718 19.5617 29.4626 19.5603 28.9311V18.6611C19.5616 18.1306 19.773 17.6222 20.1482 17.247C20.5233 16.8719 21.0317 16.6605 21.5623 16.6591H40.4331C40.9636 16.6605 41.472 16.8719 41.8472 17.247C42.2223 17.6222 42.4337 18.1306 42.4351 18.6611L42.4403 28.9311Z" fill="white"/>
<path d="M31.0003 18.2607C29.7966 18.2607 28.6198 18.6175 27.6187 19.2861C26.6176 19.9546 25.8371 20.9048 25.3759 22.0167C24.9146 23.1286 24.7933 24.3523 25.0272 25.5331C25.2611 26.7139 25.8397 27.7989 26.69 28.6511C27.5403 29.5032 28.6241 30.0841 29.8044 30.3205C30.9848 30.557 32.2087 30.4382 33.3216 29.9793C34.4345 29.5205 35.3864 28.742 36.057 27.7424C36.7277 26.7427 37.087 25.5667 37.0895 24.3629C37.0909 22.7464 36.4502 21.1954 35.3084 20.0511C34.1665 18.9068 32.6169 18.2628 31.0003 18.2607ZM31.0003 29.6539C29.9507 29.6539 28.9248 29.3425 28.0522 28.7591C27.1797 28.1758 26.4999 27.3466 26.0988 26.3767C25.6978 25.4067 25.5935 24.3396 25.7992 23.3104C26.0049 22.2812 26.5114 21.3361 27.2545 20.5948C27.9975 19.8536 28.9438 19.3495 29.9736 19.1463C31.0033 18.9431 32.0702 19.05 33.0391 19.4534C34.0081 19.8569 34.8355 20.5387 35.4168 21.4127C35.998 22.2866 36.3069 23.3134 36.3043 24.3629C36.2995 25.767 35.7387 27.1119 34.7447 28.1035C33.7507 29.0951 32.4044 29.6526 31.0003 29.6539Z" fill="white"/>
<path d="M34.0468 26.2713C34.0047 26.2415 33.9571 26.2204 33.9068 26.2091C33.8565 26.1978 33.8045 26.1966 33.7537 26.2055C33.7029 26.2145 33.6544 26.2334 33.611 26.2612C33.5676 26.289 33.5301 26.3252 33.5008 26.3675C33.4618 26.4221 32.5388 27.7377 30.9008 27.6831C30.4261 27.6568 29.9633 27.5251 29.546 27.2975C29.1286 27.0699 28.7672 26.7522 28.488 26.3675C28.4584 26.3252 28.4208 26.2891 28.3773 26.2613C28.3339 26.2335 28.2853 26.2145 28.2345 26.2054C28.1837 26.1964 28.1316 26.1974 28.0811 26.2085C28.0307 26.2196 27.983 26.2405 27.9407 26.27C27.8983 26.2996 27.8622 26.3372 27.8344 26.3806C27.8066 26.4241 27.7876 26.4727 27.7786 26.5235C27.7695 26.5743 27.7705 26.6264 27.7816 26.6768C27.7927 26.7273 27.8136 26.775 27.8432 26.8173C28.1909 27.3049 28.6451 27.7069 29.1712 27.993C29.6973 28.279 30.2817 28.4416 30.88 28.4683H30.9996C32.9366 28.4683 34.0259 26.9889 34.1455 26.8173C34.1752 26.7751 34.1962 26.7274 34.2073 26.677C34.2184 26.6266 34.2194 26.5745 34.2102 26.5237C34.201 26.4729 34.1818 26.4245 34.1538 26.3811C34.1257 26.3378 34.0893 26.3005 34.0468 26.2713Z" fill="white"/>
<circle cx="29.0977" cy="23.2317" r="0.95122" fill="white"/>
<circle cx="32.9024" cy="23.2317" r="0.95122" fill="white"/>
<rect x="0.5" y="1" width="61" height="47" rx="16.5" stroke="white"/>
</svg>
