<svg width="62" height="49" viewBox="0 0 62 49" fill="none" xmlns="http://www.w3.org/2000/svg">
<rect x="0.5" y="1" width="61" height="47" rx="16.5" fill="#09AF2E"/>
<path d="M38.1211 25.8182H33.1551V22.8074C33.1551 22.1178 32.8812 21.4565 32.3936 20.9689C31.906 20.4813 31.2447 20.2074 30.5551 20.2074C30.4172 20.2074 30.2849 20.2622 30.1874 20.3597C30.0899 20.4572 30.0351 20.5895 30.0351 20.7274V22.42C30.0357 22.976 29.9204 23.5261 29.6966 24.0351C29.4728 24.5441 29.1453 25.0008 28.7351 25.3762L27.5053 26.4942V26.1302C27.5053 25.7116 27.339 25.3102 27.0431 25.0142C26.7471 24.7183 26.3457 24.552 25.9271 24.552H23.8757C23.4569 24.552 23.0552 24.7182 22.7588 25.0141C22.4625 25.31 22.2956 25.7114 22.2949 26.1302V35.1418C22.2956 35.5606 22.4625 35.962 22.7588 36.2579C23.0552 36.5538 23.4569 36.72 23.8757 36.72H25.9245C26.1715 36.7199 26.4151 36.6617 26.6355 36.5502C26.8559 36.4386 27.047 36.2768 27.1933 36.0778H36.7197C37.0169 36.0778 37.3019 35.9597 37.5121 35.7496C37.7222 35.5394 37.8403 35.2544 37.8403 34.9572V34.0446C37.8389 33.8469 37.7851 33.6531 37.6843 33.483C37.8322 33.379 37.9527 33.2407 38.0356 33.0799C38.1184 32.9192 38.1612 32.7408 38.1601 32.56V31.7332C38.1607 31.6083 38.1396 31.4843 38.0977 31.3666C38.3801 31.3456 38.6441 31.2188 38.8369 31.0115C39.0297 30.8042 39.1372 30.5317 39.1377 30.2486V29.336C39.1367 29.1371 39.0819 28.9421 38.9791 28.7718C39.1857 28.6794 39.3624 28.5311 39.4891 28.3437C39.6159 28.1563 39.6878 27.9371 39.6967 27.711V27.0792C39.7045 26.372 39.0077 25.8182 38.1211 25.8182ZM25.9245 35.9582H23.8757C23.6576 35.9582 23.4483 35.8717 23.2938 35.7177C23.1393 35.5637 23.0522 35.3547 23.0515 35.1366V26.1302C23.0522 25.9121 23.1393 25.7031 23.2938 25.5491C23.4483 25.3951 23.6576 25.3086 23.8757 25.3086H25.9245C26.1427 25.3086 26.3519 25.3951 26.5064 25.5491C26.6609 25.7031 26.748 25.9121 26.7487 26.1302V35.1418C26.748 35.3599 26.6609 35.5689 26.5064 35.7229C26.3519 35.8769 26.1427 35.9634 25.9245 35.9634V35.9582ZM38.3889 30.2382C38.3889 30.286 38.3795 30.3333 38.3612 30.3775C38.3429 30.4217 38.3161 30.4618 38.2823 30.4956C38.2485 30.5294 38.2084 30.5562 38.1642 30.5745C38.12 30.5928 38.0727 30.6022 38.0249 30.6022H35.6797C35.5848 30.6101 35.4963 30.6533 35.4318 30.7234C35.3673 30.7935 35.3315 30.8853 35.3315 30.9805C35.3315 31.0757 35.3673 31.1675 35.4318 31.2376C35.4963 31.3077 35.5848 31.3509 35.6797 31.3588H37.0343C37.0821 31.3588 37.1294 31.3682 37.1736 31.3865C37.2178 31.4048 37.2579 31.4316 37.2917 31.4654C37.3255 31.4992 37.3523 31.5393 37.3706 31.5835C37.3889 31.6277 37.3983 31.675 37.3983 31.7228V32.56C37.3987 32.6079 37.3895 32.6554 37.3713 32.6997C37.3531 32.744 37.3263 32.7843 37.2925 32.8182C37.2586 32.852 37.2183 32.8788 37.174 32.897C37.1297 32.9152 37.0822 32.9243 37.0343 32.924C36.9934 32.9253 36.953 32.9332 36.9147 32.9474C36.8505 32.9338 36.7853 32.926 36.7197 32.924H34.8399C34.745 32.9319 34.6565 32.9751 34.592 33.0452C34.5275 33.1153 34.4917 33.2071 34.4917 33.3023C34.4917 33.3975 34.5275 33.4893 34.592 33.5594C34.6565 33.6295 34.745 33.6727 34.8399 33.6806H36.7197C36.8162 33.6806 36.9088 33.7189 36.9771 33.7872C37.0454 33.8555 37.0837 33.9481 37.0837 34.0446V34.9572C37.0837 35.0537 37.0454 35.1463 36.9771 35.2146C36.9088 35.2828 36.8162 35.3212 36.7197 35.3212H27.4923C27.4962 35.2615 27.4962 35.2015 27.4923 35.1418V27.5186L29.2317 25.9378C29.7219 25.4926 30.1139 24.95 30.3825 24.3447C30.6511 23.7395 30.7905 23.0848 30.7917 22.4226V20.9822C31.2338 21.0401 31.6399 21.2566 31.9344 21.5913C32.229 21.926 32.3921 22.3563 32.3933 22.8022V26.06C32.3919 26.1854 32.4358 26.3071 32.5171 26.4027C32.5983 26.4982 32.7113 26.5612 32.8353 26.58C32.8604 26.5826 32.8856 26.5826 32.9107 26.58H38.1107C38.5969 26.58 38.9375 26.84 38.9375 27.0844V27.7162C38.9375 27.9554 38.5969 28.2206 38.1107 28.2206H36.4597C36.3648 28.2285 36.2763 28.2717 36.2118 28.3418C36.1473 28.4119 36.1115 28.5037 36.1115 28.5989C36.1115 28.6941 36.1473 28.7859 36.2118 28.856C36.2763 28.9261 36.3648 28.9693 36.4597 28.9772H38.0197C38.1162 28.9772 38.2088 29.0155 38.2771 29.0838C38.3454 29.1521 38.3837 29.2447 38.3837 29.3412L38.3889 30.2382Z" fill="white"/>
<path d="M24.9365 24.0762C24.9992 24.1092 25.0699 24.1238 25.1405 24.1184C25.2111 24.113 25.2788 24.0879 25.3358 24.0458C25.3928 24.0038 25.4368 23.9465 25.4627 23.8806C25.4887 23.8147 25.4955 23.7428 25.4825 23.6732L25.1107 21.5932L26.6265 20.08C26.6765 20.0303 26.7116 19.9676 26.728 19.899C26.7444 19.8304 26.7413 19.7586 26.7192 19.6917C26.6971 19.6247 26.6567 19.5653 26.6027 19.52C26.5487 19.4747 26.4831 19.4453 26.4133 19.4352L24.3073 19.1414L23.3557 17.246C23.324 17.1835 23.2757 17.131 23.216 17.0943C23.1564 17.0576 23.0877 17.0381 23.0177 17.038C22.947 17.0383 22.8779 17.0584 22.8181 17.0961C22.7584 17.1338 22.7104 17.1876 22.6797 17.2512L21.7489 19.1622L19.6429 19.4794C19.5732 19.4904 19.508 19.5205 19.4545 19.5665C19.401 19.6124 19.3614 19.6724 19.34 19.7396C19.3187 19.8068 19.3165 19.8787 19.3337 19.947C19.351 20.0154 19.3869 20.0777 19.4375 20.1268L20.9689 21.6036L20.6205 23.7018C20.6091 23.7711 20.6174 23.8423 20.6445 23.9071C20.6717 23.972 20.7165 24.0278 20.7739 24.0684C20.8382 24.115 20.9155 24.1405 20.9949 24.1412C21.0565 24.1407 21.1171 24.1256 21.1717 24.097L23.0489 23.096L24.9365 24.0762ZM22.8695 22.3342L21.4915 23.07L21.7515 21.5308C21.761 21.47 21.7558 21.4079 21.7364 21.3495C21.7169 21.2911 21.6838 21.2383 21.6397 21.1954L20.5139 20.1138L22.0557 19.8798C22.1162 19.8705 22.1736 19.8468 22.2229 19.8106C22.2723 19.7744 22.3121 19.7267 22.3391 19.6718L23.0229 18.26L23.7197 19.664C23.7471 19.7189 23.7874 19.7663 23.8372 19.8021C23.8871 19.8379 23.9449 19.861 24.0057 19.8694L25.5397 20.08L24.4295 21.1746C24.3856 21.2175 24.3529 21.2705 24.3343 21.329C24.3157 21.3875 24.3118 21.4496 24.3229 21.51L24.5959 23.0466L23.2101 22.329C23.1568 22.3033 23.0983 22.2903 23.0392 22.2912C22.98 22.2922 22.9219 22.3069 22.8695 22.3342ZM42.6581 19.6978C42.6362 19.6302 42.5958 19.5701 42.5417 19.5242C42.4875 19.4783 42.4215 19.4483 42.3513 19.4378L40.2453 19.144L39.2937 17.246C39.262 17.1835 39.2137 17.131 39.154 17.0943C39.0944 17.0576 39.0257 17.0381 38.9557 17.038C38.885 17.0383 38.8159 17.0584 38.7561 17.0961C38.6964 17.1338 38.6484 17.1876 38.6177 17.2512L37.6869 19.1622L35.5835 19.4794C35.5138 19.4904 35.4486 19.5205 35.3951 19.5665C35.3416 19.6124 35.302 19.6724 35.2806 19.7396C35.2593 19.8068 35.2571 19.8787 35.2743 19.947C35.2916 20.0154 35.3275 20.0777 35.3781 20.1268L36.9095 21.6036L36.5611 23.7018C36.5502 23.7716 36.5594 23.8431 36.5874 23.908C36.6155 23.9729 36.6613 24.0285 36.7197 24.0684C36.784 24.115 36.8612 24.1405 36.9407 24.1412C37.0023 24.1407 37.0629 24.1256 37.1175 24.097L38.9947 23.096L40.8797 24.0762C40.9424 24.1092 41.0131 24.1238 41.0837 24.1184C41.1543 24.113 41.222 24.0879 41.279 24.0458C41.336 24.0038 41.38 23.9465 41.4059 23.8806C41.4319 23.8147 41.4387 23.7428 41.4257 23.6732L41.0539 21.5932L42.5645 20.08C42.613 20.0306 42.6474 19.969 42.6638 19.9018C42.6803 19.8345 42.6783 19.764 42.6581 19.6978ZM40.3779 21.1798C40.334 21.2227 40.3013 21.2757 40.2827 21.3342C40.2641 21.3927 40.2602 21.4548 40.2713 21.5152L40.5313 23.0518L39.1481 22.3342C39.0939 22.3059 39.0337 22.2912 38.9726 22.2912C38.9115 22.2912 38.8513 22.3059 38.7971 22.3342L37.4191 23.07L37.6791 21.5308C37.689 21.4702 37.6842 21.4082 37.6652 21.3498C37.6462 21.2915 37.6135 21.2385 37.5699 21.1954L36.4597 20.1138L38.0015 19.8798C38.062 19.8705 38.1194 19.8468 38.1687 19.8106C38.2181 19.7744 38.2579 19.7267 38.2849 19.6718L38.9609 18.26L39.6577 19.664C39.685 19.7189 39.7254 19.7663 39.7752 19.8021C39.8251 19.8379 39.8829 19.861 39.9437 19.8694L41.4881 20.0852L40.3779 21.1798ZM28.9379 16.8456L28.5895 18.9438C28.5801 19.0115 28.5894 19.0805 28.6165 19.1433C28.6435 19.2061 28.6872 19.2603 28.7429 19.3C28.8066 19.3478 28.8842 19.3734 28.9639 19.3728C29.0255 19.3723 29.0861 19.3572 29.1407 19.3286L31.0179 18.3276L32.9055 19.3078C32.966 19.3434 33.0353 19.3616 33.1055 19.3602C33.1757 19.3588 33.2442 19.338 33.3033 19.3C33.3606 19.2584 33.405 19.2014 33.4312 19.1356C33.4575 19.0697 33.4645 18.9978 33.4515 18.9282L33.0797 16.8482L34.5955 15.3558C34.6538 15.3074 34.6963 15.2426 34.7176 15.1698C34.7388 15.097 34.7377 15.0196 34.7145 14.9474C34.6912 14.8752 34.647 14.8117 34.5873 14.7649C34.5276 14.7181 34.4553 14.6903 34.3797 14.685L32.2737 14.3912L31.3247 12.4906C31.2939 12.4267 31.2455 12.3728 31.1852 12.3355C31.1248 12.2982 31.055 12.2789 30.9841 12.28C30.9136 12.2809 30.8447 12.3013 30.785 12.3389C30.7254 12.3765 30.6773 12.4299 30.6461 12.4932L29.7153 14.4068L27.6197 14.724C27.55 14.7344 27.4846 14.7641 27.431 14.8098C27.3773 14.8555 27.3376 14.9153 27.3162 14.9824C27.2948 15.0496 27.2927 15.1214 27.31 15.1896C27.3273 15.2579 27.3635 15.32 27.4143 15.3688L28.9379 16.8456ZM30.0247 15.1244C30.0852 15.1143 30.1425 15.0899 30.1918 15.0533C30.2411 15.0166 30.2809 14.9688 30.3081 14.9138L30.9997 13.5124L31.6965 14.9086C31.7245 14.9628 31.7651 15.0094 31.8149 15.0447C31.8646 15.08 31.9221 15.1029 31.9825 15.1114L33.5269 15.3272L32.4167 16.4218C32.3709 16.4636 32.3363 16.5162 32.3159 16.5747C32.2955 16.6333 32.2899 16.696 32.2997 16.7572L32.5727 18.2938L31.1869 17.5762C31.1329 17.5473 31.0726 17.5322 31.0114 17.5322C30.9502 17.5322 30.8899 17.5473 30.8359 17.5762L29.4579 18.3094L29.7179 16.7702C29.7266 16.7102 29.721 16.6491 29.7015 16.5917C29.6821 16.5343 29.6494 16.4824 29.6061 16.44L28.4829 15.3584L30.0247 15.1244Z" fill="white"/>
<rect x="0.5" y="1" width="61" height="47" rx="16.5" stroke="white"/>
</svg>
