<svg width="62" height="49" viewBox="0 0 62 49" fill="none" xmlns="http://www.w3.org/2000/svg">
<rect x="0.5" y="1" width="61" height="47" rx="16.5" fill="#09AF2E"/>
<path d="M31.0005 15.7224C29.8148 15.7224 28.6557 16.074 27.6698 16.7327C26.6839 17.3913 25.9154 18.3276 25.4615 19.423C25.0077 20.5184 24.8888 21.7238 25.1199 22.8867C25.351 24.0497 25.9218 25.118 26.76 25.9566C27.5983 26.7952 28.6663 27.3664 29.8292 27.5981C30.9921 27.8297 32.1975 27.7113 33.2931 27.2579C34.3887 26.8046 35.3253 26.0365 35.9844 25.0509C36.6435 24.0652 36.9956 22.9063 36.9961 21.7206C36.994 20.1309 36.3618 18.6068 35.2379 17.4824C34.114 16.3581 32.5902 15.7251 31.0005 15.7224ZM31.0005 26.9596C29.9637 26.9596 28.9502 26.6521 28.0881 26.076C27.2261 25.5 26.5543 24.6812 26.1576 23.7233C25.761 22.7653 25.6573 21.7113 25.8598 20.6945C26.0623 19.6776 26.5617 18.7437 27.295 18.0107C28.0283 17.2778 28.9625 16.7787 29.9795 16.5768C30.9964 16.3748 32.0504 16.479 33.0082 16.8761C33.9659 17.2733 34.7843 17.9455 35.36 18.8078C35.9356 19.6701 36.2426 20.6838 36.2421 21.7206C36.24 23.1099 35.687 24.4416 34.7044 25.4238C33.7218 26.4059 32.3898 26.9582 31.0005 26.9596Z" fill="white"/>
<path d="M38.9535 19.6146C38.6659 19.5127 38.4168 19.3243 38.2403 19.0753C38.0639 18.8263 37.9689 18.5288 37.9681 18.2236C37.9692 18.0031 38.0189 17.7856 38.1137 17.5866C38.2804 17.25 38.3569 16.8759 38.336 16.5009C38.315 16.1259 38.1972 15.7627 37.9941 15.4468C37.7061 14.9774 37.2533 14.6325 36.7242 14.4796C36.1952 14.3266 35.6282 14.3767 35.1341 14.62C34.9471 14.7085 34.7437 14.7569 34.5368 14.7623C34.33 14.7677 34.1243 14.7298 33.9329 14.6512C33.74 14.5715 33.5663 14.4513 33.4237 14.2988C33.2811 14.1463 33.1728 13.9651 33.1061 13.7672C32.9511 13.3327 32.6655 12.9568 32.2885 12.691C31.9115 12.4252 31.4614 12.2825 31.0001 12.2825C30.5388 12.2825 30.0888 12.4252 29.7118 12.691C29.3347 12.9568 29.0491 13.3327 28.8941 13.7672C28.8258 13.9633 28.7169 14.1428 28.5747 14.2941C28.4325 14.4454 28.2601 14.5651 28.0686 14.6456C27.8772 14.726 27.671 14.7652 27.4634 14.7608C27.2558 14.7564 27.0514 14.7084 26.8635 14.62C26.526 14.4545 26.1516 14.3788 25.7763 14.4002C25.401 14.4216 25.0376 14.5394 24.7211 14.7422C24.401 14.9426 24.1362 15.2202 23.9513 15.5496C23.7664 15.8789 23.6673 16.2495 23.6629 16.6272C23.6642 16.9626 23.7416 17.2932 23.8891 17.5944C23.9822 17.7939 24.031 18.0112 24.0321 18.2314C24.0317 18.5373 23.9369 18.8356 23.7605 19.0855C23.5841 19.3354 23.3348 19.5247 23.0467 19.6276C22.612 19.782 22.2357 20.0672 21.9695 20.444C21.7034 20.8209 21.5605 21.2709 21.5605 21.7323C21.5605 22.1937 21.7034 22.6437 21.9695 23.0206C22.2357 23.3974 22.612 23.6827 23.0467 23.837C23.3348 23.9407 23.584 24.1305 23.7603 24.3808C23.9366 24.6311 24.0315 24.9296 24.0321 25.2358C24.0318 25.4536 23.9829 25.6685 23.8891 25.865C23.7221 26.2019 23.6451 26.5762 23.6656 26.9516C23.6861 27.327 23.8034 27.6907 24.0061 28.0074C24.1676 28.2624 24.3781 28.4829 24.6253 28.6561C24.8725 28.8292 25.1517 28.9516 25.4465 29.0162L23.2261 34.4086C23.1991 34.474 23.1908 34.5456 23.2023 34.6155C23.2138 34.6853 23.2445 34.7505 23.2911 34.8038C23.3383 34.856 23.3989 34.8942 23.4663 34.9144C23.5336 34.9346 23.6053 34.9359 23.6733 34.9182L26.2733 34.211L27.6149 36.5302C27.6477 36.5881 27.6954 36.6362 27.753 36.6696C27.8106 36.7029 27.876 36.7203 27.9425 36.72H27.9659C28.0365 36.7149 28.1042 36.6903 28.1615 36.649C28.2189 36.6077 28.2637 36.5513 28.2909 36.486L30.5061 31.0988C30.6765 31.1392 30.851 31.1593 31.0261 31.1586C31.1782 31.1588 31.3298 31.1431 31.4785 31.1118L33.6599 36.486C33.6872 36.5513 33.732 36.6077 33.7893 36.649C33.8467 36.6903 33.9144 36.7149 33.9849 36.72H34.0109C34.0774 36.7201 34.1428 36.7025 34.2003 36.6692C34.2578 36.6359 34.3055 36.5879 34.3385 36.5302L35.6801 34.211L38.2801 34.9182C38.3496 34.9378 38.4232 34.9372 38.4923 34.9165C38.5614 34.8958 38.6232 34.8558 38.6704 34.8012C38.7176 34.7467 38.7483 34.6798 38.7588 34.6084C38.7693 34.537 38.7593 34.4641 38.7299 34.3982L36.4965 29.0136C37.0088 28.9165 37.4716 28.6451 37.8067 28.2457C38.1417 27.8462 38.3283 27.3431 38.3347 26.8218C38.3355 26.4865 38.259 26.1555 38.1111 25.8546C38.0175 25.6561 37.9679 25.4397 37.9655 25.2202C37.9665 24.9141 38.0619 24.6157 38.2387 24.3659C38.4156 24.116 38.6652 23.9268 38.9535 23.824C39.3883 23.6697 39.7646 23.3844 40.0307 23.0076C40.2969 22.6307 40.4397 22.1807 40.4397 21.7193C40.4397 21.2579 40.2969 20.8079 40.0307 20.431C39.7646 20.0542 39.3883 19.769 38.9535 19.6146ZM27.8801 35.4876L26.7777 33.5792C26.7362 33.5068 26.6718 33.4503 26.5945 33.4188C26.5172 33.3872 26.4317 33.3824 26.3513 33.405L24.2245 33.9848L26.2551 29.024C26.4657 28.9877 26.6704 28.9229 26.8635 28.8316C27.0274 28.7554 27.2034 28.7087 27.3835 28.6938C27.4251 28.6911 27.4668 28.6911 27.5083 28.6938C27.8135 28.6945 28.111 28.7896 28.36 28.966C28.6091 29.1424 28.7974 29.3915 28.8993 29.6792C29.0612 30.1514 29.3795 30.5541 29.8015 30.8206L27.8801 35.4876ZM37.7315 33.9848L35.6073 33.405C35.5266 33.3827 35.4408 33.3876 35.3632 33.4191C35.2856 33.4506 35.2206 33.5069 35.1783 33.5792L34.0681 35.4876L32.1597 30.8414C32.6016 30.5752 32.9358 30.1619 33.1035 29.674C33.1664 29.4926 33.2635 29.3249 33.3895 29.18C33.5282 29.0222 33.699 28.8958 33.8905 28.8093C34.0819 28.7227 34.2896 28.6781 34.4997 28.6782H34.5985C34.7843 28.6911 34.966 28.7387 35.1341 28.8186C35.3078 28.9012 35.4913 28.9615 35.6801 28.998L37.7315 33.9848ZM38.7065 23.1142C38.2722 23.2698 37.8964 23.5554 37.6303 23.9323C37.3641 24.3091 37.2206 24.7589 37.2193 25.2202C37.2216 25.5529 37.2961 25.8812 37.4377 26.1822C37.5354 26.3813 37.5861 26.6001 37.5859 26.8218C37.5836 27.0271 37.5388 27.2297 37.4542 27.4167C37.3696 27.6038 37.2471 27.7713 37.0945 27.9086C36.9465 28.0458 36.7717 28.1507 36.581 28.217C36.3904 28.2832 36.1881 28.3092 35.9869 28.2934C35.8062 28.277 35.63 28.2276 35.4669 28.1478C35.0269 27.9382 34.5306 27.8777 34.053 27.9752C33.5755 28.0728 33.1427 28.3232 32.8201 28.6886C32.6339 28.904 32.4885 29.1516 32.3911 29.4192C32.3238 29.6203 32.2129 29.804 32.0664 29.9572C31.9199 30.1105 31.7414 30.2295 31.5435 30.3058C31.1783 30.4408 30.7758 30.4343 30.4151 30.2876C30.2254 30.209 30.0548 30.0906 29.9148 29.9403C29.7748 29.7901 29.6688 29.6114 29.6039 29.4166C29.4484 28.983 29.1631 28.6078 28.7867 28.3421C28.4103 28.0765 27.9612 27.9333 27.5005 27.932C27.4304 27.9277 27.3601 27.9277 27.2899 27.932C27.0305 27.9577 26.7773 28.0271 26.5411 28.1374C26.3576 28.2248 26.159 28.2759 25.9561 28.2882H25.8963C25.6453 28.2846 25.3992 28.2179 25.1807 28.0944C24.9622 27.9708 24.7782 27.7943 24.6457 27.581C24.5123 27.3717 24.4355 27.1313 24.4227 26.8834C24.41 26.6355 24.4617 26.3885 24.5729 26.1666C24.7057 25.884 24.778 25.5769 24.7852 25.2647C24.7924 24.9526 24.7342 24.6424 24.6145 24.3541C24.4948 24.0657 24.3162 23.8055 24.0901 23.5902C23.864 23.3749 23.5954 23.2092 23.3015 23.1038C23.0142 23.0007 22.7657 22.8114 22.5901 22.5617C22.4144 22.312 22.3201 22.0142 22.3201 21.7089C22.3201 21.4036 22.4144 21.1058 22.5901 20.8561C22.7657 20.6064 23.0142 20.4171 23.3015 20.314C23.736 20.159 24.1119 19.8734 24.3777 19.4963C24.6435 19.1193 24.7861 18.6693 24.7861 18.208C24.7853 17.8763 24.7117 17.5487 24.5703 17.2486C24.408 16.921 24.3751 16.5442 24.4782 16.1933C24.5813 15.8425 24.8129 15.5434 25.1267 15.3558C25.3357 15.223 25.5752 15.1461 25.8225 15.1324C26.0697 15.1188 26.3162 15.1688 26.5385 15.2778C26.8212 15.4115 27.1287 15.4846 27.4413 15.4924C27.7539 15.5002 28.0646 15.4425 28.3536 15.323C28.6425 15.2035 28.9033 15.0249 29.1191 14.7986C29.3349 14.5723 29.5009 14.3033 29.6065 14.009C29.709 13.7214 29.898 13.4725 30.1475 13.2965C30.397 13.1206 30.6948 13.0261 31.0001 13.0261C31.3055 13.0261 31.6033 13.1206 31.8528 13.2965C32.1023 13.4725 32.2913 13.7214 32.3937 14.009C32.4985 14.3034 32.6638 14.5725 32.879 14.799C33.0942 15.0256 33.3544 15.2045 33.643 15.3243C33.9316 15.4441 34.2421 15.5021 34.5544 15.4945C34.8668 15.487 35.1741 15.414 35.4565 15.2804C35.7847 15.1185 36.1617 15.0858 36.5128 15.1889C36.8638 15.292 37.1634 15.5232 37.3519 15.8368C37.4858 16.0459 37.5631 16.2861 37.5763 16.534C37.5895 16.782 37.5382 17.0291 37.4273 17.2512C37.2862 17.5514 37.2126 17.8789 37.2115 18.2106C37.2123 18.6718 37.3556 19.1214 37.6218 19.498C37.888 19.8745 38.2642 20.1596 38.6987 20.314C38.9861 20.4171 39.2346 20.6064 39.4102 20.8561C39.5859 21.1058 39.6802 21.4036 39.6802 21.7089C39.6802 22.0142 39.5859 22.312 39.4102 22.5617C39.2346 22.8114 38.9861 23.0007 38.6987 23.1038L38.7065 23.1142Z" fill="white"/>
<path d="M31.3382 17.22C31.307 17.1569 31.2589 17.1039 31.1991 17.0668C31.1394 17.0296 31.0705 17.01 31.0002 17.01C30.9298 17.01 30.8609 17.0296 30.8012 17.0668C30.7415 17.1039 30.6933 17.1569 30.6622 17.22L29.4402 19.7264L26.6842 20.1268C26.6146 20.1373 26.5493 20.167 26.4956 20.2124C26.4419 20.2579 26.4019 20.3174 26.3801 20.3843C26.3582 20.4512 26.3554 20.5228 26.3719 20.5912C26.3884 20.6596 26.4236 20.722 26.4736 20.7716L28.4678 22.7164L27.9868 25.4594C27.9746 25.529 27.9822 25.6006 28.0087 25.666C28.0352 25.7315 28.0796 25.7882 28.1368 25.8297C28.194 25.8711 28.2617 25.8957 28.3321 25.9006C28.4026 25.9054 28.473 25.8904 28.5354 25.8572L31.0002 24.5572L33.465 25.8572C33.5272 25.8897 33.5973 25.9041 33.6674 25.8989C33.7374 25.8937 33.8046 25.869 33.8614 25.8277C33.9181 25.7863 33.9622 25.7299 33.9886 25.6648C34.0151 25.5998 34.0228 25.5286 34.011 25.4594L33.5404 22.7164L35.5346 20.7716C35.5855 20.7227 35.6216 20.6603 35.6386 20.5918C35.6556 20.5232 35.6529 20.4513 35.6308 20.3842C35.609 20.317 35.5691 20.2571 35.5154 20.2112C35.4617 20.1653 35.3963 20.1352 35.3266 20.1242L32.5602 19.7264L31.3382 17.22ZM32.8722 22.303C32.8284 22.3455 32.7956 22.398 32.7766 22.4559C32.7575 22.5139 32.7529 22.5756 32.763 22.6358L33.1374 24.8224L31.1744 23.7824C31.1202 23.7541 31.06 23.7394 30.9989 23.7394C30.9378 23.7394 30.8775 23.7541 30.8234 23.7824L28.8604 24.8224L29.2374 22.6358C29.2474 22.5756 29.2428 22.5139 29.2238 22.4559C29.2047 22.398 29.1719 22.3455 29.1282 22.303L27.5396 20.743L29.734 20.4232C29.7941 20.414 29.8513 20.3906 29.9006 20.3548C29.9499 20.3191 29.9899 20.2721 30.0174 20.2178L31.0002 18.26L31.9804 20.249C32.0081 20.3037 32.0485 20.3508 32.0983 20.3866C32.1481 20.4223 32.2057 20.4456 32.2664 20.4544L34.4582 20.7742L32.8722 22.303Z" fill="white"/>
<rect x="0.5" y="1" width="61" height="47" rx="16.5" stroke="white"/>
</svg>
