<svg width="52" height="52" viewBox="0 0 52 52" fill="none" xmlns="http://www.w3.org/2000/svg">
<rect x="0.5" y="0.5" width="51" height="51" rx="16.5" fill="#09AF2E"/>
<path d="M39.393 26.4687V19.2811C39.393 18.0976 38.4336 17.1382 37.2501 17.1382H23.1206C21.9372 17.1382 20.9778 18.0976 20.9778 19.2811V21.9152" stroke="white" stroke-width="1.5" stroke-linecap="round" stroke-linejoin="round"/>
<path d="M27.116 12.6071L30.1852 17.1382L33.2544 12.6071" stroke="white" stroke-width="1.5" stroke-linecap="round" stroke-linejoin="round"/>
<path d="M24.897 33.0407L24.4887 28.72C24.409 27.877 23.8071 27.1756 22.986 26.9688L18.0406 25.7232C17.2412 25.5219 16.4155 25.4453 15.5927 25.4962L12.646 25.6785L12.646 34.8944L21.737 39.1297C23.7522 40.0686 26.0671 40.1265 28.1267 39.2897L37.4047 35.52C38.5053 35.0729 39.0771 33.8547 38.7181 32.7223V32.7223C38.3577 31.5858 37.1818 30.9197 36.0218 31.1951L26.7989 33.384L19.484 32.0637" stroke="white" stroke-width="1.5" stroke-linecap="round" stroke-linejoin="round"/>
<path d="M30.1853 17.1382L30.1853 28.0089" stroke="white" stroke-width="1.5" stroke-linecap="round"/>
<rect x="0.5" y="0.5" width="51" height="51" rx="16.5" stroke="white"/>
</svg>
