<svg width="53" height="53" viewBox="0 0 53 53" fill="none" xmlns="http://www.w3.org/2000/svg">
<g clip-path="url(#clip0_1467_991)">
<path d="M11.5289 10.9306C16.7138 13.9318 26.2438 14.0153 26.501 14.0262C21.1884 13.3185 6.77018 10.2828 8.56503 5.69213C10.3599 1.10142 22.1919 9.2649 26.4578 13.9717L26.4938 14.0135L26.528 13.9717C30.7939 9.26671 42.6295 1.11594 44.4208 5.69394C46.2121 10.272 31.7992 13.3185 26.501 14.0262C26.7582 14.0262 36.2864 13.9318 41.4713 10.9306C49.1561 6.48144 43.6565 -2.2409 37.3493 0.544368C35.2793 1.45162 33.3999 3.2117 31.7993 5.17137C31.2094 5.89717 30.6554 6.65926 30.1483 7.41047C28.7428 9.5005 27.5201 11.7098 26.4938 14.0135C25.4657 11.7104 24.2424 9.50119 22.8376 7.41047C22.3304 6.65926 21.7783 5.90261 21.1866 5.17137C19.6003 3.2117 17.721 1.45162 15.6509 0.544368C9.34376 -2.2409 3.84409 6.48144 11.5289 10.9306Z" fill="#09AF2E"/>
<path d="M53 14.2385H0V22.5616H2.30742V53H50.6926V22.5616H53V14.2385Z" fill="#09AF2E"/>
<path d="M16.3032 40.4545V25.9091H17.235V40.4545H16.3032ZM18.7748 30.7102C18.7293 30.2519 18.5343 29.8958 18.1896 29.642C17.8449 29.3883 17.3771 29.2614 16.7862 29.2614C16.3846 29.2614 16.0456 29.3182 15.7691 29.4318C15.4926 29.5417 15.2805 29.6951 15.1328 29.892C14.9888 30.089 14.9168 30.3125 14.9168 30.5625C14.9093 30.7708 14.9528 30.9527 15.0475 31.108C15.146 31.2633 15.2805 31.3977 15.4509 31.5114C15.6214 31.6212 15.8184 31.7178 16.0418 31.8011C16.2653 31.8807 16.504 31.9489 16.7578 32.0057L17.8032 32.2557C18.3108 32.3693 18.7767 32.5208 19.2009 32.7102C19.6252 32.8996 19.9926 33.1326 20.3032 33.4091C20.6138 33.6856 20.8543 34.0114 21.0248 34.3864C21.199 34.7614 21.2881 35.1913 21.2918 35.6761C21.2881 36.3883 21.1062 37.0057 20.7464 37.5284C20.3903 38.0473 19.8752 38.4508 19.2009 38.7386C18.5305 39.0227 17.7218 39.1648 16.7748 39.1648C15.8354 39.1648 15.0172 39.0208 14.3203 38.733C13.6271 38.4451 13.0854 38.0189 12.6953 37.4545C12.3089 36.8864 12.1062 36.1837 12.0873 35.3466H14.468C14.4945 35.7367 14.6062 36.0625 14.8032 36.3239C15.004 36.5814 15.271 36.7765 15.6043 36.9091C15.9415 37.0379 16.3221 37.1023 16.7464 37.1023C17.1631 37.1023 17.5248 37.0417 17.8316 36.9205C18.1422 36.7992 18.3828 36.6307 18.5532 36.4148C18.7237 36.1989 18.8089 35.9508 18.8089 35.6705C18.8089 35.4091 18.7312 35.1894 18.5759 35.0114C18.4244 34.8333 18.2009 34.6818 17.9055 34.5568C17.6138 34.4318 17.2559 34.3182 16.8316 34.2159L15.5646 33.8977C14.5835 33.6591 13.8089 33.286 13.2407 32.7784C12.6725 32.2708 12.3903 31.5871 12.3941 30.7273C12.3903 30.0227 12.5778 29.4072 12.9566 28.8807C13.3392 28.3542 13.8638 27.9432 14.5305 27.6477C15.1971 27.3523 15.9547 27.2045 16.8032 27.2045C17.6668 27.2045 18.4206 27.3523 19.0646 27.6477C19.7123 27.9432 20.2161 28.3542 20.5759 28.8807C20.9358 29.4072 21.1214 30.017 21.1328 30.7102H18.7748ZM22.6385 39V37.2273L26.7805 33.392C27.1328 33.0511 27.4283 32.7443 27.6669 32.4716C27.9093 32.1989 28.093 31.9318 28.218 31.6705C28.343 31.4053 28.4055 31.1193 28.4055 30.8125C28.4055 30.4716 28.3279 30.178 28.1726 29.9318C28.0173 29.6818 27.8052 29.4905 27.5362 29.358C27.2673 29.2216 26.9624 29.1534 26.6214 29.1534C26.2654 29.1534 25.9548 29.2254 25.6896 29.3693C25.4245 29.5133 25.2199 29.7197 25.076 29.9886C24.9321 30.2576 24.8601 30.5777 24.8601 30.9489H22.5249C22.5249 30.1875 22.6972 29.5265 23.0419 28.9659C23.3866 28.4053 23.8696 27.9716 24.4908 27.6648C25.112 27.358 25.8279 27.2045 26.6385 27.2045C27.4718 27.2045 28.1972 27.3523 28.8146 27.6477C29.4358 27.9394 29.9188 28.3447 30.2635 28.8636C30.6082 29.3826 30.7805 29.9773 30.7805 30.6477C30.7805 31.0871 30.6934 31.5208 30.5192 31.9489C30.3487 32.3769 30.0438 32.8523 29.6044 33.375C29.165 33.8939 28.5457 34.517 27.7464 35.2443L26.0476 36.9091V36.9886H30.9339V39H22.6385ZM37.0391 39.2557C36.0618 39.2519 35.2209 39.0114 34.5164 38.5341C33.8156 38.0568 33.2759 37.3655 32.8971 36.4602C32.5221 35.5549 32.3365 34.4659 32.3403 33.1932C32.3403 31.9242 32.5278 30.8428 32.9028 29.9489C33.2815 29.0549 33.8213 28.375 34.5221 27.9091C35.2266 27.4394 36.0656 27.2045 37.0391 27.2045C38.0126 27.2045 38.8497 27.4394 39.5505 27.9091C40.255 28.3788 40.7967 29.0606 41.1755 29.9545C41.5543 30.8447 41.7418 31.9242 41.738 33.1932C41.738 34.4697 41.5486 35.5606 41.1698 36.4659C40.7948 37.3712 40.2569 38.0625 39.5562 38.5398C38.8554 39.017 38.0164 39.2557 37.0391 39.2557ZM37.0391 37.2159C37.7058 37.2159 38.238 36.8807 38.6357 36.2102C39.0334 35.5398 39.2304 34.5341 39.2266 33.1932C39.2266 32.3106 39.1357 31.5758 38.9539 30.9886C38.7759 30.4015 38.5221 29.9602 38.1925 29.6648C37.8668 29.3693 37.4823 29.2216 37.0391 29.2216C36.3762 29.2216 35.8459 29.553 35.4482 30.2159C35.0505 30.8788 34.8497 31.8712 34.8459 33.1932C34.8459 34.0871 34.935 34.8333 35.113 35.4318C35.2948 36.0265 35.5505 36.4735 35.88 36.7727C36.2096 37.0682 36.5959 37.2159 37.0391 37.2159Z" fill="#EEFFF2"/>
</g>
<defs>
<clipPath id="clip0_1467_991">
<rect width="53" height="53" fill="white"/>
</clipPath>
</defs>
</svg>
