<svg width="52" height="52" viewBox="0 0 52 52" fill="none" xmlns="http://www.w3.org/2000/svg">
<rect x="0.5" y="0.5" width="51" height="51" rx="16.5" fill="#09AF2E"/>
<path d="M14.4029 19.5641C14.436 19.252 14.8204 19.1755 14.9974 19.4336L17.9617 23.7565C18.7811 24.9514 20.5645 24.8445 21.2379 23.5601L25.5979 15.2443C25.6767 15.094 25.8314 15 26 15C26.1686 15 26.3233 15.094 26.4021 15.2443L30.7621 23.5601C31.4355 24.8445 33.2189 24.9514 34.0383 23.7565L37.0026 19.4336C37.1796 19.1755 37.564 19.252 37.5971 19.5641C37.8155 21.624 38 23.7387 38 25.8947C38 28.0507 37.8155 30.1655 37.5971 32.2254C37.3011 35.0157 35.0764 37.2599 32.3117 37.5708C30.2582 37.8017 28.1497 38 26 38C23.8503 38 21.7418 37.8017 19.6883 37.5708C16.9236 37.2599 14.6989 35.0157 14.4029 32.2254C14.1845 30.1655 14 28.0507 14 25.8947C14 23.7387 14.1845 21.624 14.4029 19.5641Z" stroke="white" stroke-width="1.5" stroke-linejoin="round"/>
<rect x="0.5" y="0.5" width="51" height="51" rx="16.5" stroke="url(#paint0_linear_86_37193)"/>
<defs>
<linearGradient id="paint0_linear_86_37193" x1="36.5" y1="-2.17557e-06" x2="10.5" y2="52" gradientUnits="userSpaceOnUse">
<stop stop-color="#D2FFDC"/>
<stop offset="1" stop-color="#AEFFC0" stop-opacity="0"/>
</linearGradient>
</defs>
</svg>
