<svg width="32" height="32" viewBox="0 0 32 32" fill="none" xmlns="http://www.w3.org/2000/svg">
<path d="M7.73162 18.168L15.3388 25.3737C15.6387 25.6578 15.7886 25.7998 15.9708 25.8104C15.9902 25.8116 16.0098 25.8116 16.0292 25.8104C16.2114 25.7998 16.3613 25.6578 16.6612 25.3737L24.2684 18.168C26.3883 16.16 26.6462 12.8739 24.8656 10.5597L24.5037 10.0895C22.3616 7.30551 18.0338 7.76981 16.531 10.9448C16.3189 11.393 15.6811 11.393 15.469 10.9448C13.9662 7.76981 9.63839 7.30551 7.49626 10.0895L7.13443 10.5597C5.35376 12.874 5.61168 16.16 7.73162 18.168Z" fill="#4C546E" stroke="#4C546E" stroke-width="2"/>
</svg>
