<svg width="19" height="20" viewBox="0 0 19 20" fill="none" xmlns="http://www.w3.org/2000/svg">
<path fill-rule="evenodd" clip-rule="evenodd" d="M10.1234 16.9991C11.5718 15.6096 15.0417 11.897 15.0417 8.22233C15.0417 5.16175 12.5606 2.68066 9.50004 2.68066C6.43946 2.68066 3.95837 5.16175 3.95837 8.22233C3.95837 11.897 7.42828 15.6096 8.87665 16.9991C9.22996 17.3381 9.77012 17.3381 10.1234 16.9991ZM9.50004 10.5973C10.8117 10.5973 11.875 9.53401 11.875 8.22233C11.875 6.91066 10.8117 5.84733 9.50004 5.84733C8.18836 5.84733 7.12504 6.91066 7.12504 8.22233C7.12504 9.53401 8.18836 10.5973 9.50004 10.5973Z" fill="#4C546E"/>
</svg>
